<?xml version="1.0" encoding="UTF-8"?>
<svg id="_Слой_1" data-name="Слой 1" xmlns="http://www.w3.org/2000/svg" xmlns:xlink="http://www.w3.org/1999/xlink" viewBox="0 0 1725.33 301.33">
  <defs>
    <style>
      .cls-1 {
        fill: url(#_Безымянный_градиент_8-5);
      }

      .cls-2 {
        fill: #fff;
      }

      .cls-3 {
        fill: url(#_Безымянный_градиент_8-9);
      }

      .cls-4 {
        fill: url(#_Безымянный_градиент_8-11);
      }

      .cls-5 {
        fill: url(#_Безымянный_градиент_8);
      }

      .cls-6 {
        fill: url(#_Безымянный_градиент_8-8);
      }

      .cls-7 {
        font-size: 27.54px;
        letter-spacing: -.02em;
      }

      .cls-7, .cls-8 {
        fill: #ec672b;
        font-family: TrebuchetMS, 'Trebuchet MS';
      }

      .cls-9 {
        fill: url(#_Безымянный_градиент_8-4);
      }

      .cls-10 {
        fill: url(#_Безымянный_градиент_8-10);
      }

      .cls-8 {
        font-size: 72.47px;
        letter-spacing: -.02em;
      }

      .cls-11 {
        fill: url(#_Безымянный_градиент_8-2);
      }

      .cls-12 {
        fill: #ec682b;
        font-family: TrebuchetMS-Bold, 'Trebuchet MS';
        font-size: 148.61px;
        font-weight: 700;
        letter-spacing: -.02em;
      }

      .cls-13 {
        fill: url(#_Безымянный_градиент_8-7);
      }

      .cls-14 {
        fill: url(#_Безымянный_градиент_8-6);
      }

      .cls-15 {
        fill: url(#_Безымянный_градиент_8-3);
      }
    </style>
    <linearGradient id="_Безымянный_градиент_8" data-name="Безымянный градиент 8" x1="137.67" y1="23.22" x2="137.67" y2="267.94" gradientUnits="userSpaceOnUse">
      <stop offset="0" stop-color="#ef782a"/>
      <stop offset=".13" stop-color="#ee712b"/>
      <stop offset=".55" stop-color="#eb622e"/>
      <stop offset=".88" stop-color="#eb5d2f"/>
    </linearGradient>
    <linearGradient id="_Безымянный_градиент_8-2" data-name="Безымянный градиент 8" x1="514.4" y1="118.52" x2="688.72" y2="118.52" xlink:href="#_Безымянный_градиент_8"/>
    <linearGradient id="_Безымянный_градиент_8-3" data-name="Безымянный градиент 8" x1="514.4" y1="118.52" x2="688.72" y2="118.52" xlink:href="#_Безымянный_градиент_8"/>
    <linearGradient id="_Безымянный_градиент_8-4" data-name="Безымянный градиент 8" x1="514.4" y1="118.52" x2="688.72" y2="118.52" xlink:href="#_Безымянный_градиент_8"/>
    <linearGradient id="_Безымянный_градиент_8-5" data-name="Безымянный градиент 8" x1="514.4" y1="118.52" x2="688.72" y2="118.52" xlink:href="#_Безымянный_градиент_8"/>
    <linearGradient id="_Безымянный_градиент_8-6" data-name="Безымянный градиент 8" x1="514.4" y1="118.52" x2="688.72" y2="118.52" xlink:href="#_Безымянный_градиент_8"/>
    <linearGradient id="_Безымянный_градиент_8-7" data-name="Безымянный градиент 8" x1="514.4" y1="118.52" x2="688.72" y2="118.52" xlink:href="#_Безымянный_градиент_8"/>
    <linearGradient id="_Безымянный_градиент_8-8" data-name="Безымянный градиент 8" x1="1557.36" y1="246.14" x2="1629.36" y2="246.14" xlink:href="#_Безымянный_градиент_8"/>
    <linearGradient id="_Безымянный_градиент_8-9" data-name="Безымянный градиент 8" x1="1652.53" y1="246.25" x2="1724.53" y2="246.25" xlink:href="#_Безымянный_градиент_8"/>
    <linearGradient id="_Безымянный_градиент_8-10" data-name="Безымянный градиент 8" x1="1462.03" y1="245.25" x2="1534.03" y2="245.25" xlink:href="#_Безымянный_градиент_8"/>
    <linearGradient id="_Безымянный_градиент_8-11" data-name="Безымянный градиент 8" x1="1367.03" y1="244.58" x2="1439.03" y2="244.58" xlink:href="#_Безымянный_градиент_8"/>
  </defs>
  <g>
    <rect class="cls-5" x="1.33" y="16.67" width="272.67" height="266" rx="25.67" ry="25.67"/>
    <g>
      <rect class="cls-2" x="52.38" y="36.54" width="18.84" height="154.18" rx="9.42" ry="9.42"/>
      <path class="cls-2" d="m95.39,93.01c-23.2,0-42.01,18.95-42.01,42.33s18.81,42.33,42.01,42.33,42.01-18.95,42.01-42.33-18.81-42.33-42.01-42.33Zm-.02,66.89c-13.53,0-24.49-11.19-24.49-25s10.97-25,24.49-25,24.49,11.19,24.49,25-10.97,25-24.49,25Z"/>
    </g>
    <g>
      <rect class="cls-2" x="202.95" y="36.15" width="18.84" height="154.18" rx="9.42" ry="9.42" transform="translate(424.74 226.48) rotate(-180)"/>
      <path class="cls-2" d="m178.78,92.62c-23.2,0-42.01,18.95-42.01,42.33s18.81,42.33,42.01,42.33,42.01-18.95,42.01-42.33-18.81-42.33-42.01-42.33Zm.02,66.89c-13.53,0-24.49-11.19-24.49-25s10.97-25,24.49-25,24.49,11.19,24.49,25-10.97,25-24.49,25Z"/>
    </g>
    <g>
      <path class="cls-2" d="m140,227.73l21.67-26.77c.94-1.32,1.15-2.97.5-4.3-.68-1.4-2.35-2.49-3.59-2.18-.31.08-.52.23-.57.26-.9.63-12.12,7.64-21.43,7.26-8.29-.34-18.82-5.5-20.54-6.64-.12-.08-.63-.42-1.35-.49-1.34-.12-2.89.78-3.57,2.18-.59,1.2-.34,2.36-.27,2.67.14.56.41,1.11.83,1.61l22.07,26.44c1.63,1.95,4.64,1.93,6.24-.05Z"/>
      <rect class="cls-2" x="127.96" y="133.93" width="18.84" height="80.3" rx="9.42" ry="9.42"/>
    </g>
    <path class="cls-2" d="m196,241.27c0,3.39-1.94,6.48-5.01,7.93-11.19,5.29-30.05,12.18-54.13,12.22-24.28.04-43.28-6.9-54.52-12.22-3.06-1.45-5.01-4.54-5.01-7.93h0c0-6.2,6.26-10.45,12.02-8.15,11.32,4.52,27.34,9.04,46.79,9.12,19.92.08,36.32-4.53,47.83-9.12,5.77-2.3,12.03,1.93,12.03,8.14h0Z"/>
  </g>
  <text class="cls-8" transform="translate(330.91 252.33)"><tspan x="0" y="0">downloader</tspan></text>
  <g>
    <g>
      <path class="cls-11" d="m349.3,157.94l-3.87,5.73h-9.75V55.55l17.28-4.35v36.28c4.61-2.95,9.63-4.43,15.07-4.43,10.83,0,19.56,3.59,26.2,10.78,6.64,7.18,9.96,16.39,9.96,27.61,0,13.01-3.34,23.31-10.02,30.88-6.68,7.57-15.74,11.36-27.17,11.36-6.87,0-12.77-1.91-17.7-5.73Zm3.66-54.93v40.56c2.53,3.15,5.97,4.72,10.3,4.72,8.34,0,14.25-2.08,17.73-6.24,3.48-4.16,5.22-10.81,5.22-19.96,0-15.77-7.19-23.66-21.57-23.66-5.12,0-9.01,1.52-11.68,4.57Z"/>
      <path class="cls-15" d="m411.73,123.18c0-11.85,3.26-21.5,9.78-28.95,6.52-7.45,15.13-11.17,25.82-11.17,11.24,0,19.98,3.58,26.2,10.74,6.22,7.16,9.33,16.96,9.33,29.39s-3.17,22.23-9.51,29.53c-6.34,7.31-15.01,10.96-26.03,10.96s-19.99-3.69-26.24-11.07c-6.25-7.38-9.37-17.19-9.37-29.42Zm17.97,0c0,17.13,5.88,25.69,17.63,25.69,5.39,0,9.67-2.22,12.82-6.68,3.16-4.45,4.74-10.79,4.74-19.01,0-16.88-5.85-25.32-17.56-25.32-5.39,0-9.68,2.23-12.86,6.68-3.18,4.45-4.77,10.67-4.77,18.65Z"/>
      <path class="cls-9" d="m489.02,123.18c0-11.85,3.26-21.5,9.78-28.95,6.52-7.45,15.13-11.17,25.82-11.17,11.24,0,19.98,3.58,26.2,10.74,6.22,7.16,9.33,16.96,9.33,29.39s-3.17,22.23-9.51,29.53c-6.34,7.31-15.01,10.96-26.03,10.96s-19.99-3.69-26.24-11.07c-6.25-7.38-9.37-17.19-9.37-29.42Zm17.97,0c0,17.13,5.88,25.69,17.63,25.69,5.39,0,9.67-2.22,12.82-6.68,3.16-4.45,4.74-10.79,4.74-19.01,0-16.88-5.85-25.32-17.56-25.32-5.39,0-9.68,2.23-12.86,6.68-3.18,4.45-4.77,10.67-4.77,18.65Z"/>
      <path class="cls-1" d="m566.59,157.22l6.15-14.44c5.16,4.31,10.99,6.46,17.49,6.46s10.09-2.52,10.09-7.55c0-2.95-1.01-5.37-3.04-7.26-2.03-1.89-5.97-4.11-11.82-6.68-12.77-5.56-19.15-13.35-19.15-23.37,0-6.72,2.44-11.96,7.33-15.71,4.88-3.75,11.13-5.62,18.74-5.62s14.93,1.81,21.71,5.44l-4.98,14.08c-3.78-3.39-9.03-5.08-15.76-5.08-6.04,0-9.06,2.52-9.06,7.55,0,1.98.99,3.77,2.97,5.37,1.98,1.6,6.22,3.74,12.72,6.42,6.5,2.69,11.18,5.94,14.03,9.76,2.86,3.82,4.29,8.44,4.29,13.86,0,7.21-2.55,12.88-7.64,17.02-5.09,4.14-12.02,6.2-20.77,6.2-4.93,0-8.88-.42-11.86-1.27-2.97-.85-6.79-2.58-11.44-5.19Z"/>
      <path class="cls-14" d="m631.92,99.09h-8.57v-14.59h8.57v-15.82l17.28-6.68v22.49h20.33v14.59h-20.33v34.03c0,5.56.83,9.49,2.49,11.79,1.66,2.3,4.56,3.45,8.71,3.45s8.02-1.18,11.61-3.56v16.69c-4.01,1.45-9.72,2.18-17.14,2.18s-13.04-2.19-17.01-6.57c-3.96-4.38-5.95-10.61-5.95-18.69v-39.33Z"/>
      <path class="cls-13" d="m715.37,174.7c-1.84,5.18-5.8,9.47-11.86,12.88-6.06,3.41-13.12,5.12-21.19,5.12v-16.04c13.32,0,19.98-3.51,19.98-10.52,0-4.64-1.84-11.76-5.53-21.33l-23.16-60.3h17.91l20.19,53.7,18.18-53.7h17.9l-32.42,90.2Z"/>
    </g>
    <text class="cls-12" transform="translate(327.73 162.22) scale(.95 1)"><tspan x="0" y="0">boosty</tspan></text>
  </g>
  <g>
    <g>
      <rect class="cls-6" x="1557.36" y="210.14" width="72" height="72" rx="12.17" ry="12.17"/>
      <path class="cls-2" d="m1576.89,260.96c5.35,0,9.69-4.35,9.69-9.69v-24.58l21.81,7.93v18c-1.47-.87-3.14-1.34-4.85-1.35-5.35,0-9.69,4.35-9.69,9.69s4.35,9.69,9.69,9.69,9.69-4.35,9.69-9.69v-28.04c0-1.02-.64-1.93-1.59-2.28l-26.65-9.69c-1.26-.46-2.65.19-3.1,1.44-.1.27-.15.55-.15.83v19.7c-1.47-.87-3.14-1.34-4.85-1.35-5.35,0-9.69,4.35-9.69,9.69s4.35,9.69,9.69,9.69"/>
    </g>
    <g>
      <rect class="cls-3" x="1652.53" y="210.25" width="72" height="72" rx="12.17" ry="12.17"/>
      <path class="cls-2" d="m1703.81,269.58c2.61,0,4.72-2.11,4.72-4.72v-28.33l-14.17-14.17h-18.89c-2.61,0-4.72,2.11-4.72,4.72v37.78c0,2.61,2.11,4.72,4.72,4.72h28.33Zm-11.81-42.5l11.81,11.81h-11.81v-11.81Zm-14.17,9.44h7.08v4.72h-7.08v-4.72Zm0,9.44h23.61v4.72h-23.61v-4.72Zm0,9.44h23.61v4.72h-23.61v-4.72Z"/>
    </g>
    <g>
      <rect class="cls-10" x="1462.03" y="209.25" width="72" height="72" rx="12.17" ry="12.17"/>
      <path class="cls-2" d="m1518.95,221.58h-40.99c-2.83,0-5.12,2.3-5.12,5.12v35.86c0,2.83,2.3,5.12,5.12,5.12h40.99c2.83,0,5.12-2.3,5.12-5.12v-35.86c0-2.83-2.3-5.12-5.12-5.12m0,15.37s0,0,0,0h-1.19l-6.83-10.25h8.02v10.25Zm-11.53,15.37l-14.09,7.69v-15.37l14.09,7.69Zm-2.47-15.37l-6.83-10.25h6.65l6.83,10.25h-6.65Zm-6.16,0h-6.65l-6.83-10.25h6.65l6.83,10.25Zm-20.83-10.25h1.19l6.83,10.25h-8.02v-10.25Z"/>
    </g>
    <g>
      <rect class="cls-4" x="1367.03" y="208.58" width="72" height="72" rx="12.17" ry="12.17"/>
      <path class="cls-2" d="m1389.75,267.92h29c2.67,0,4.83-2.16,4.83-4.83v-29l-14.5-14.5h-19.33c-2.67,0-4.83,2.16-4.83,4.83v38.67c0,2.67,2.16,4.83,4.83,4.83m16.92-43.5l12.08,12.08h-12.08v-12.08Zm-10.88,16.92c2,0,3.63,1.62,3.63,3.63,0,2-1.62,3.63-3.63,3.62-2,0-3.63-1.62-3.62-3.63,0-2,1.62-3.63,3.63-3.62h0m1.21,12.08l3.86,3.29,5.81-10.54,9.67,14.5h-24.17l4.83-7.25Z"/>
    </g>
  </g>
  <text class="cls-7" transform="translate(1365.5 183.72)"><tspan x="0" y="0">Sync your creations:</tspan></text>
</svg>