<?xml version="1.0" encoding="UTF-8"?>
<svg id="_Слой_1" data-name="Слой 1" xmlns="http://www.w3.org/2000/svg" xmlns:xlink="http://www.w3.org/1999/xlink" viewBox="0 0 204.57 63.09">
  <defs>
    <linearGradient id="_Безымянный_градиент_276" data-name="Безымянный градиент 276" x1="32.34" y1="768.45" x2="32.34" y2="710.4" gradientTransform="translate(0 770) scale(1 -1)" gradientUnits="userSpaceOnUse">
      <stop offset=".22" stop-color="#f77952"/>
      <stop offset=".98" stop-color="#db7943"/>
    </linearGradient>
    <linearGradient id="_Безымянный_градиент_283" data-name="Безымянный градиент 283" x1="85.92" y1="16.73" x2="85.92" y2="38.24" gradientUnits="userSpaceOnUse">
      <stop offset=".19" stop-color="#f77952"/>
      <stop offset=".98" stop-color="#db7943"/>
    </linearGradient>
    <linearGradient id="_Безымянный_градиент_284" data-name="Безымянный градиент 284" x1="110.21" y1="18.78" x2="110.21" y2="35.49" gradientUnits="userSpaceOnUse">
      <stop offset=".05" stop-color="#f77952"/>
      <stop offset=".98" stop-color="#db7943"/>
    </linearGradient>
    <linearGradient id="_Безымянный_градиент_285" data-name="Безымянный градиент 285" x1="134.48" y1="16.84" x2="134.48" y2="39.18" gradientUnits="userSpaceOnUse">
      <stop offset=".08" stop-color="#f77952"/>
      <stop offset=".98" stop-color="#db7943"/>
    </linearGradient>
    <linearGradient id="_Безымянный_градиент_286" data-name="Безымянный градиент 286" x1="155.75" y1="19.75" x2="155.75" y2="36.07" gradientUnits="userSpaceOnUse">
      <stop offset="0" stop-color="#f77952"/>
      <stop offset=".98" stop-color="#db7943"/>
    </linearGradient>
    <linearGradient id="_Безымянный_градиент_287" data-name="Безымянный градиент 287" x1="173.13" y1="19.36" x2="173.13" y2="34.64" gradientUnits="userSpaceOnUse">
      <stop offset=".01" stop-color="#f77952"/>
      <stop offset=".98" stop-color="#db7943"/>
    </linearGradient>
    <linearGradient id="_Безымянный_градиент_288" data-name="Безымянный градиент 288" x1="192.92" y1="18.4" x2="192.92" y2="41.69" gradientUnits="userSpaceOnUse">
      <stop offset=".03" stop-color="#f77952"/>
      <stop offset=".98" stop-color="#db7943"/>
    </linearGradient>
  </defs>
  <g>
    <rect width="64.67" height="63.09" rx="14.59" ry="14.59" fill="url(#_Безымянный_градиент_276)"/>
    <g>
      <path d="M14.34,4.71h0c1.23,0,2.23,1,2.23,2.23v32.1c0,1.23-1,2.23-2.23,2.23h0c-1.23,0-2.23-1-2.23-2.23V6.95c0-1.23,1-2.23,2.23-2.23Z" fill="#fff"/>
      <path d="M22.31,18.11c-5.5,0-9.96,4.49-9.96,10.04s4.46,10.04,9.96,10.04,9.96-4.49,9.96-10.04-4.46-10.04-9.96-10.04ZM22.3,33.97c-3.21,0-5.81-2.65-5.81-5.93s2.6-5.93,5.81-5.93,5.81,2.65,5.81,5.93-2.6,5.93-5.81,5.93Z" fill="#fff"/>
    </g>
    <g>
      <path d="M50.06,41.19h0c-1.23,0-2.23-1-2.23-2.23V6.85c0-1.23,1-2.23,2.23-2.23h0c1.23,0,2.23,1,2.23,2.23v32.1c0,1.23-1,2.23-2.23,2.23Z" fill="#fff"/>
      <path d="M42.09,18.01c-5.5,0-9.96,4.49-9.96,10.04s4.46,10.04,9.96,10.04,9.96-4.49,9.96-10.04-4.46-10.04-9.96-10.04ZM42.09,33.88c-3.21,0-5.81-2.65-5.81-5.93s2.6-5.93,5.81-5.93,5.81,2.65,5.81,5.93-2.6,5.93-5.81,5.93Z" fill="#fff"/>
    </g>
    <g>
      <path d="M32.89,50.06l5.14-6.35c.22-.31.27-.7.12-1.02-.16-.33-.56-.59-.85-.52-.07.02-.12.05-.14.06-.21.15-2.87,1.81-5.08,1.72-1.97-.08-4.46-1.3-4.87-1.57-.03-.02-.15-.1-.32-.12-.32-.03-.69.19-.85.52-.14.28-.08.56-.06.63.03.13.1.26.2.38l5.23,6.27c.39.46,1.1.46,1.48-.01h0Z" fill="#fff"/>
      <path d="M32.27,27.81h0c1.23,0,2.23,1,2.23,2.23v14.58c0,1.23-1,2.23-2.23,2.23h0c-1.23,0-2.23-1-2.23-2.23v-14.58c0-1.23,1-2.23,2.23-2.23Z" fill="#fff"/>
    </g>
    <path d="M46.17,53.27c0,.8-.46,1.54-1.19,1.88-2.65,1.25-7.13,2.89-12.84,2.9-5.76,0-10.27-1.64-12.93-2.9-.73-.34-1.19-1.08-1.19-1.88h0c0-1.47,1.48-2.48,2.85-1.93,2.68,1.07,6.48,2.14,11.1,2.16,4.72.02,8.61-1.07,11.34-2.16,1.37-.55,2.85.46,2.85,1.93h0Z" fill="#fff"/>
  </g>
  <text transform="translate(73.27 58.05)" fill="#db7943" font-family="TrebuchetMS, &apos;Trebuchet MS&apos;" font-size="18.71" isolation="isolate" letter-spacing="-.02em"><tspan x="0" y="0">downloader</tspan></text>
  <g>
    <path d="M79.44,38.14l-1.22,1.8h-3.06V5.99l5.43-1.37v11.39c1.45-.93,3.02-1.39,4.73-1.39,3.4,0,6.14,1.13,8.23,3.39,2.09,2.25,3.13,5.15,3.13,8.67,0,4.09-1.05,7.32-3.15,9.7-2.1,2.38-4.94,3.57-8.53,3.57-2.16,0-4.01-.6-5.56-1.8h0ZM80.59,20.89v12.74c.79.99,1.87,1.48,3.23,1.48,2.62,0,4.47-.65,5.57-1.96s1.64-3.39,1.64-6.27c0-4.95-2.26-7.43-6.77-7.43-1.61,0-2.83.48-3.67,1.44h0Z" fill="url(#_Безымянный_градиент_283)"/>
    <path d="M99.04,27.22c0-3.72,1.02-6.75,3.07-9.09,2.05-2.34,4.75-3.51,8.11-3.51,3.53,0,6.27,1.12,8.23,3.37s2.93,5.33,2.93,9.23-1,6.98-2.99,9.27c-1.99,2.3-4.71,3.44-8.17,3.44s-6.28-1.16-8.24-3.48c-1.96-2.32-2.94-5.4-2.94-9.24h0ZM104.69,27.22c0,5.38,1.85,8.07,5.54,8.07,1.69,0,3.04-.7,4.03-2.1.99-1.4,1.49-3.39,1.49-5.97,0-5.3-1.84-7.95-5.51-7.95-1.69,0-3.04.7-4.04,2.1s-1.5,3.35-1.5,5.86h0Z" fill="url(#_Безымянный_градиент_284)"/>
    <path d="M123.31,27.22c0-3.72,1.02-6.75,3.07-9.09,2.05-2.34,4.75-3.51,8.11-3.51,3.53,0,6.27,1.12,8.23,3.37,1.95,2.25,2.93,5.33,2.93,9.23s-1,6.98-2.99,9.27c-1.99,2.3-4.71,3.44-8.17,3.44s-6.28-1.16-8.24-3.48c-1.96-2.32-2.94-5.4-2.94-9.24h0ZM128.96,27.22c0,5.38,1.85,8.07,5.54,8.07,1.69,0,3.04-.7,4.03-2.1.99-1.4,1.49-3.39,1.49-5.97,0-5.3-1.84-7.95-5.51-7.95-1.69,0-3.04.7-4.04,2.1s-1.5,3.35-1.5,5.86h0Z" fill="url(#_Безымянный_градиент_285)"/>
    <path d="M147.67,37.91l1.93-4.53c1.62,1.35,3.45,2.03,5.49,2.03s3.17-.79,3.17-2.37c0-.93-.32-1.69-.95-2.28-.64-.59-1.87-1.29-3.71-2.1-4.01-1.75-6.01-4.19-6.01-7.34,0-2.11.77-3.76,2.3-4.93,1.53-1.18,3.49-1.76,5.88-1.76s4.69.57,6.82,1.71l-1.56,4.42c-1.19-1.06-2.84-1.6-4.95-1.6-1.9,0-2.84.79-2.84,2.37,0,.62.31,1.18.93,1.69.62.5,1.95,1.17,3.99,2.02,2.04.84,3.51,1.87,4.41,3.06.9,1.2,1.35,2.65,1.35,4.35,0,2.26-.8,4.04-2.4,5.34s-3.77,1.95-6.52,1.95c-1.55,0-2.79-.13-3.72-.4-.93-.27-2.13-.81-3.59-1.63h0Z" fill="url(#_Безымянный_градиент_286)"/>
    <path d="M168.19,19.66h-2.69v-4.58h2.69v-4.97l5.43-2.1v7.06h6.38v4.58h-6.38v10.69c0,1.75.26,2.98.78,3.7.52.72,1.43,1.08,2.74,1.08s2.52-.37,3.65-1.12v5.24c-1.26.46-3.05.68-5.38.68s-4.09-.69-5.34-2.06c-1.24-1.38-1.87-3.33-1.87-5.87v-12.35h0Z" fill="url(#_Безымянный_градиент_287)"/>
    <path d="M194.39,43.4c-.58,1.63-1.82,2.97-3.72,4.04s-4.12,1.61-6.65,1.61v-5.04c4.18,0,6.27-1.1,6.27-3.3,0-1.46-.58-3.69-1.74-6.7l-7.27-18.94h5.62l6.34,16.86,5.71-16.86h5.62l-10.18,28.32h0Z" fill="url(#_Безымянный_градиент_288)"/>
  </g>
</svg>